<svg width="24" height="23" viewBox="0 0 24 23" fill="none" xmlns="http://www.w3.org/2000/svg">
<g filter="url(#filter0_d)">
<path fill-rule="evenodd" clip-rule="evenodd" d="M11.9864 6.34556C10.6736 6.34556 9.61041 7.41036 9.61041 8.72156C9.61041 10.0344 10.6744 11.0984 11.9864 11.0984C13.2984 11.0984 14.3632 10.0344 14.3632 8.72156C14.3632 7.41036 13.2992 6.34556 11.9864 6.34556ZM18.3232 3.96956H16.4224C16.1608 3.96956 15.8792 3.76716 15.7968 3.51916L15.3056 2.04476C15.2224 1.79676 14.9416 1.59436 14.68 1.59436H9.29361C9.03201 1.59436 8.75041 1.79676 8.66801 2.04476L8.17681 3.51916C8.09361 3.76716 7.81201 3.96956 7.55121 3.96956H5.65041C4.77921 3.96956 4.06641 4.68236 4.06641 5.55356V12.6824C4.06641 13.5536 4.77921 14.2664 5.65041 14.2664H18.324C19.1952 14.2664 19.908 13.5536 19.908 12.6824V5.55356C19.908 4.68236 19.1944 3.96956 18.3232 3.96956ZM11.9864 12.6824C9.79921 12.6824 8.02641 10.9096 8.02641 8.72156C8.02641 6.53516 9.79921 4.76156 11.9864 4.76156C14.1736 4.76156 15.9472 6.53516 15.9472 8.72156C15.9472 10.9096 14.1736 12.6824 11.9864 12.6824ZM17.7688 6.66156C17.4632 6.66156 17.2152 6.41276 17.2152 6.10716C17.2152 5.80156 17.4632 5.55276 17.7688 5.55276C18.0752 5.55276 18.3232 5.80156 18.3232 6.10716C18.3232 6.41276 18.0752 6.66156 17.7688 6.66156Z" fill="white"/>
</g>
<defs>
<filter id="filter0_d" x="0" y="0" width="24" height="24" filterUnits="userSpaceOnUse" color-interpolation-filters="sRGB">
<feFlood flood-opacity="0" result="BackgroundImageFix"/>
<feColorMatrix in="SourceAlpha" type="matrix" values="0 0 0 0 0 0 0 0 0 0 0 0 0 0 0 0 0 0 127 0"/>
<feOffset dy="4"/>
<feGaussianBlur stdDeviation="2"/>
<feColorMatrix type="matrix" values="0 0 0 0 0 0 0 0 0 0 0 0 0 0 0 0 0 0 0.25 0"/>
<feBlend mode="normal" in2="BackgroundImageFix" result="effect1_dropShadow"/>
<feBlend mode="normal" in="SourceGraphic" in2="effect1_dropShadow" result="shape"/>
</filter>
</defs>
</svg>
